# xmcd
#
# Track frame offsets:
# 150
# 17970
# 28227
# 41460
# 54202
# 66440
# 75560
# 85404
# 100117
# 113979
# 128750
# 143850
# 159310
# 178628
# 194538
#
# Disc length: 2782 seconds
#
#
# Revision: 1
# Processed by: cddbd v1.5.2PL0 Copyright (c) Steve Scherf et al.
# Submitted via: FreeRIP 2.96 
#
DISCID=c80adc0f
DTITLE=Forró Zabumbada - Tente... Tente!!!
DYEAR=2003
DGENRE=UnClassifiable
TTITLE0=Meu Defeito
TTITLE1=Paixão de Quenga
TTITLE2=Palhaço
TTITLE3=Culto Orar
TTITLE4=O Bode
TTITLE5=Rapariga de Soldado
TTITLE6=Bala de Chiclete
TTITLE7=Cabaré da Vizinha
TTITLE8=Há se Eu Tivesse uma Hilux
TTITLE9=Declaração
TTITLE10=Feridas
TTITLE11=Diz a Ela
TTITLE12=Quero Te Amar
TTITLE13=Volta pra Mim
TTITLE14=Estou te Esperando
EXTD=deval_ce@hotmail.com
EXTT0=
EXTT1=
EXTT2=
EXTT3=
EXTT4=
EXTT5=
EXTT6=
EXTT7=
EXTT8=
EXTT9=
EXTT10=
EXTT11=
EXTT12=
EXTT13=
EXTT14=
PLAYORDER=
